<svg xmlns="http://www.w3.org/2000/svg" xmlns:xlink="http://www.w3.org/1999/xlink" viewBox="0 0 420.37 200.19"><defs><linearGradient id="linear-gradient" x1="-5.85" y1="119.83" x2="115.82" y2="140.82" gradientTransform="rotate(-7.83 -241.434 114.942)" gradientUnits="userSpaceOnUse"><stop offset="0" stop-color="#e6e7e8"/><stop offset=".24" stop-color="#e4e4e5"/><stop offset=".42" stop-color="#dddcdb"/><stop offset=".59" stop-color="#d2cdcb"/><stop offset=".74" stop-color="#c3b9b4"/><stop offset=".89" stop-color="#af9f96"/><stop offset="1" stop-color="#9b8579"/></linearGradient><linearGradient id="linear-gradient-2" x1="312.63" y1="50.78" x2="434.3" y2="71.77" xlink:href="#linear-gradient"/><style>.cls-3{fill:#eef2e7}.cls-4{fill:#19180d}</style></defs><g id="Layer_2" data-name="Layer 2"><g id="LEFT_EAR" data-name="LEFT EAR"><g id="left_earing_1" data-name="left earing 1"><path d="M5.55 127.41S-11.18 79.89 28 60.25c0 0 11.49-9.86 47-31.59 0 0 23.29-10.28 14.27 14.08 0 0-3.46 9.35-18.53 17.74 0 0 12.2-7.24 17.29 4.79C90 70 86.28 79.91 74.77 87.33c0 0 17.89 15.09-2.61 25.06 0 0 17.75 15.91-8 21.08 0 0 11.14 19.28-15.06 23.63 0 0 8.2 13.82.55 26.77 0 0-7.91 22.28-30.53 11.26 0 0-14.59-16.11-1.67-31.65z" stroke-width="4" stroke="#19180d" stroke-miterlimit="10" fill="#eef2e7"/><path d="M17.64 141.05s-22.73-53 14.05-75.22l45-31s25.08-5-10.7 20.2c0 0-45.1 22.48-40.74 73.27-.04.04 4.47 26.4-7.61 12.75z" fill="url(#linear-gradient)"/><path class="cls-3" d="M70.67 60.48s-41.6 24.73-38.52 60.9l12.6-9.27-5.17 18.42 10.28-4.35L42.71 146"/><path class="cls-4" d="M71.7 62.2a101.69 101.69 0 00-14.84 11 89.67 89.67 0 00-12.57 13.68 61 61 0 00-8.76 16.23A45.49 45.49 0 0033 121.3l-1.41-.64 12.75-9.08 1.56-1.12-.54 1.82-5.47 18.35-.48-.42L49.79 126l.38-.16-.15.38L42.71 146l7-19.83.24.23-10.21 4.51-.67.29.19-.71 4.88-18.51 1 .71-12.47 9.45-1.25 1-.16-1.59a47.62 47.62 0 012.05-19.07 63.84 63.84 0 018.63-17.28 93.51 93.51 0 0112.59-14.49 106.52 106.52 0 0115.11-11.94z"/><path class="cls-3" d="M73.91 88.46S56.85 98 50.44 106.09"/><path class="cls-4" d="M74.89 90.2c-2.16 1-4.35 2.17-6.49 3.32s-4.26 2.38-6.34 3.66-4.13 2.63-6.09 4.08a39 39 0 00-5.53 4.83 39.26 39.26 0 014.88-5.59c1.78-1.73 3.65-3.37 5.57-4.94s3.9-3.1 5.9-4.57 4-2.89 6.15-4.28z"/><path class="cls-3" d="M72.43 114.37s-3.06-3.94-18.33 10.85"/><path class="cls-4" d="M70.87 115.62c.2.22.19.18.24.22a.28.28 0 00.08 0 .39.39 0 00-.19-.09 3.1 3.1 0 00-.89 0 10 10 0 00-2.31.6 30.42 30.42 0 00-4.76 2.41 85.61 85.61 0 00-9 6.47 87.15 87.15 0 017.79-8.08 32.8 32.8 0 014.63-3.49 12.93 12.93 0 012.88-1.32 6.16 6.16 0 011.87-.3 4.27 4.27 0 011.17.15 3.54 3.54 0 01.67.26 2.68 2.68 0 01.88.67z"/></g></g><g id="RIGHT_EAR" data-name="RIGHT EAR"><g id="right_earing_1" data-name="right earing 1"><path d="M320 91.89s-10.11-49.35 31.35-63.48c0 0 12.72-8.2 50.83-24.9 0 0 24.47-7 12.21 15.89 0 0-4.69 8.79-20.77 15.06 0 0 13.08-5.51 16.48 7.1 1.34 5-3.66 14.27-16.07 20 0 0 15.67 17.39-6 24.47 0 0 15.41 18.19-10.76 19.81 0 0 8.42 20.62-18.14 21.36 0 0 6.24 14.8-3.09 26.59 0 0-10.88 21-31.79 7 0 0-12.26-17.94 2.66-31.58z" stroke-width="5" stroke="#19180d" stroke-miterlimit="10" fill="#eef2e7"/><path d="M330.15 107.05s-15.3-55.55 24.17-72.6L403.07 9.9s25.53-1.52-13.34 18.55c0 0-47.75 16.14-50.34 67 0 .04.87 26.77-9.24 11.6z" fill="url(#linear-gradient-2)"/><path class="cls-3" d="M393.66 34.46s-44.58 18.83-46.46 55.08l13.8-7.47-7.64 17.55 10.77-2.91-9.77 18.61"/><path class="cls-4" d="M394.25 35.84a102.28 102.28 0 00-16.25 9 90.3 90.3 0 00-14.33 11.9 61.51 61.51 0 00-10.89 15 45.9 45.9 0 00-4.91 17.8l-1-.62 13.83-7.31L362 81l-.59 1.3-7.85 17.46-.31-.37 10.81-2.78.3-.07-.15.26-9.89 18.55 9.68-18.7.15.19-10.74 3-.53.15.22-.52 7.43-17.63.68.63-13.67 7.61-1 .58.05-1.19A47.47 47.47 0 01351.21 71a63.46 63.46 0 0110.88-15.72 93.08 93.08 0 0114.44-12.53 104.76 104.76 0 0116.54-9.67z"/><path class="cls-3" d="M393.07 62.61s-18.2 7.09-25.66 14.28"/><path class="cls-4" d="M393.79 64.48c-2.28.72-4.6 1.55-6.88 2.4s-4.54 1.78-6.78 2.76-4.44 2-6.59 3.21a38.64 38.64 0 00-6.13 4A39 39 0 01373 72c2-1.47 4.07-2.84 6.19-4.14s4.28-2.53 6.47-3.71 4.38-2.32 6.67-3.41z"/><path class="cls-3" d="M388.07 88.08s-2.5-4.31-19.64 8.25"/><path class="cls-4" d="M386.78 88.86c.12.17.1.12.13.15a.84.84 0 00-.3-.14 3.24 3.24 0 00-1-.13 10.37 10.37 0 00-2.45.36 30 30 0 00-5.05 1.87 86.6 86.6 0 00-9.66 5.4 87.22 87.22 0 018.94-6.71 31.71 31.71 0 015.06-2.7 13.16 13.16 0 012.95-.84 6.08 6.08 0 011.76 0 3.91 3.91 0 011 .28 3.44 3.44 0 01.55.31 2.92 2.92 0 01.29.23 2 2 0 01.35.42z"/></g></g></g></svg>