<svg xmlns="http://www.w3.org/2000/svg" viewBox="0 0 103.92 168.15"><defs><linearGradient id="linear-gradient" x1="-3.82" y1="50.78" x2="117.85" y2="71.77" gradientUnits="userSpaceOnUse"><stop offset="0" stop-color="#e6e7e8"/><stop offset=".24" stop-color="#e4e4e5"/><stop offset=".42" stop-color="#dddcdb"/><stop offset=".59" stop-color="#d2cdcb"/><stop offset=".74" stop-color="#c3b9b4"/><stop offset=".89" stop-color="#af9f96"/><stop offset="1" stop-color="#9b8579"/></linearGradient><style>.cls-3{fill:#eef2e7}.cls-4{fill:#19180d}</style></defs><g id="Layer_2" data-name="Layer 2"><g id="RIGHT_EAR" data-name="RIGHT EAR"><g id="right_earing_1" data-name="right earing 1"><path d="M3.59 91.89S-6.52 42.54 34.93 28.41c0 0 12.73-8.2 50.83-24.9 0 0 24.48-7 12.22 15.89 0 0-4.7 8.79-20.77 15.06 0 0 13.07-5.51 16.48 7.1 1.34 5-3.66 14.27-16.08 20 0 0 15.67 17.39-6 24.47 0 0 15.42 18.19-10.75 19.81 0 0 8.41 20.62-18.14 21.36 0 0 6.24 14.8-3.1 26.59 0 0-10.87 21-31.78 7 0 0-12.26-17.94 2.66-31.58z" stroke="#19180d" stroke-miterlimit="10" stroke-width="5" fill="#eef2e7"/><path d="M13.7 107.05S-1.61 51.5 37.87 34.45L86.62 9.9s25.53-1.52-13.35 18.55c0 0-47.74 16.14-50.33 67 0 .04.87 26.77-9.24 11.6z" fill="url(#linear-gradient)"/><path class="cls-3" d="M77.21 34.46S32.63 53.29 30.75 89.54l13.75-7.47-7.63 17.55 10.77-2.91-9.77 18.61"/><path class="cls-4" d="M77.8 35.84a101.85 101.85 0 00-16.25 9 90.82 90.82 0 00-14.34 11.9 61.47 61.47 0 00-10.88 15 45.73 45.73 0 00-4.91 17.8l-1-.62 13.84-7.31 1.28-.61-.54 1.27-7.89 17.46-.31-.37 10.81-2.78.29-.07-.14.26-9.89 18.55 9.65-18.67.16.19-10.74 3-.53.15.21-.52 7.43-17.63.69.63-13.67 7.65-1 .58.05-1.19A47.3 47.3 0 0134.76 71a63.19 63.19 0 0110.88-15.72 93.48 93.48 0 0114.43-12.53 105.3 105.3 0 0116.55-9.67z"/><path class="cls-3" d="M76.61 62.61S58.41 69.7 51 76.89"/><path class="cls-4" d="M77.34 64.48c-2.28.72-4.6 1.55-6.88 2.4s-4.55 1.78-6.78 2.76-4.44 2-6.59 3.21a38.19 38.19 0 00-6.13 4A38.88 38.88 0 0156.55 72c2-1.47 4.08-2.84 6.2-4.14s4.27-2.53 6.46-3.71 4.39-2.32 6.67-3.41z"/><path class="cls-3" d="M71.61 88.08s-2.5-4.31-19.61 8.25"/><path class="cls-4" d="M70.33 88.86c.11.17.1.12.13.15a.94.94 0 00-.3-.14 3.28 3.28 0 00-1-.13 10.45 10.45 0 00-2.46.36 29.85 29.85 0 00-5 1.87 85.72 85.72 0 00-9.7 5.36 87.22 87.22 0 018.94-6.71 31.6 31.6 0 015-2.7 13.4 13.4 0 013-.84 6.07 6.07 0 011.76 0 3.91 3.91 0 011 .28 3.44 3.44 0 01.55.31 2.83 2.83 0 01.28.23 1.91 1.91 0 01.36.42z"/></g></g></g></svg>