<svg xmlns="http://www.w3.org/2000/svg" xmlns:xlink="http://www.w3.org/1999/xlink" viewBox="0 0 384.56 443.57"><defs><linearGradient id="linear-gradient" x1="4.16" y1="373.54" x2="21.05" y2="373.54" gradientTransform="rotate(-2.49 -225.734 356.93)" gradientUnits="userSpaceOnUse"><stop offset="0" stop-color="#e6e7e8"/><stop offset=".35" stop-color="#d0d2d3"/><stop offset=".71" stop-color="#c1c3c5"/><stop offset="1" stop-color="#bcbec0"/></linearGradient><linearGradient id="linear-gradient-2" x1="-560.66" y1="478.33" x2="-548.9" y2="392.92" gradientTransform="matrix(-.99 .17 .17 .99 -588.91 50.88)" xlink:href="#linear-gradient"/><linearGradient id="linear-gradient-3" x1="334.24" y1="417.55" x2="349.11" y2="309.45" xlink:href="#linear-gradient"/><linearGradient id="linear-gradient-4" x1="353" y1="404.81" x2="365.3" y2="315.47" xlink:href="#linear-gradient"/><linearGradient id="linear-gradient-5" x1="358.51" y1="349.34" x2="378.66" y2="349.34" xlink:href="#linear-gradient"/><style>.cls-1{fill:#bfc1b9;stroke:#19180d;stroke-miterlimit:10;stroke-width:4px}</style></defs><g id="Layer_2" data-name="Layer 2"><g id="LEFT_EAR" data-name="LEFT EAR"><g id="left_earing_2" data-name="left earing 2"><path class="cls-1" d="M30.16 309.76s43.64 59.32 33.45 131.63c0 0-31.78 3.11-43.3-16.86 0 0-26.11-60.49-16-98.08.03 0-.1-12.45 25.85-16.69z"/><path d="M12.22 326.19s-20.49 4.9 3.21 73.93c0 0 15.05-52.69-3.21-73.93z" fill="url(#linear-gradient)"/><path d="M26.52 320.76s44.41 69.86 28.75 120.63c0 0-32.52 7.72-40.93-85.54 0 0-2.42-25.39 12.18-35.09z" stroke-width="2" fill="#bfc1b9" stroke="#19180d" stroke-miterlimit="10"/><path d="M25.62 345.15s20 44 14.83 75.5c0 0-16.16-3.72-21.77-38.48 0 0-7.58-35.56 6.94-37.02z" fill="url(#linear-gradient-2)"/></g></g><g id="RIGHT_EAR" data-name="RIGHT EAR"><g id="antena"><path d="M346.19 282.23s-32.9 68.63-10.5 141.7c0 0 31.87-2.1 39.81-24.68 0 0 15.42-66.9-1-104.07 0 0-2.01-12.95-28.31-12.95z" stroke-width="5" fill="#bfc1b9" stroke="#19180d" stroke-miterlimit="10"/><path d="M332.07 399.25c1.93 13.09 17.93 1.44 17.93 1.44-12.57-14.43 1.81-84.81 1.81-84.81.78-8.89-13.6-5.3-13.6-5.3 8.87-12.58-16.16 18.92-6.14 88.67z" fill="url(#linear-gradient-3)"/><path d="M362.71 284.59s-31.85 79.65-7.71 129.53c0 0 33.39 2.54 25.75-95.29-.03 0-1.99-26.66-18.04-34.24z" stroke-width="3" fill="#bfc1b9" stroke="#19180d" stroke-miterlimit="10"/><path d="M356.22 314.09s-12.22 48.85-1.72 80.55c0 0 15.29-6.54 14.89-43.43 0 0 1.4-38.03-13.17-37.12z" fill="url(#linear-gradient-4)"/><path stroke-width="6" fill="#bfc1b9" stroke="#19180d" stroke-miterlimit="10" d="M356.03 285.1L335.92 19.11"/><circle class="cls-1" cx="334.88" cy="16" r="14"/><circle cx="329.65" cy="17.77" r="8.77" fill="#e3e5df"/><path d="M378.66 349.34c0 23.18-4.51 42-10.07 42s-10.08-18.79-10.08-42 4.51-42 10.08-42 10.07 18.82 10.07 42z" fill="url(#linear-gradient-5)"/><path d="M362.71 394.69a40.62 40.62 0 01-4.06-11.1 76.17 76.17 0 01-1.65-11.75 147.57 147.57 0 01.64-23.69q1.21-11.79 3.56-23.41c1.54-7.74 3.36-15.41 5.55-23l.54-1.87.93 1.68a63 63 0 013.63 7.84 76.44 76.44 0 012.62 8.19 69.13 69.13 0 011.58 8.43 55.41 55.41 0 01.42 8.54 67.18 67.18 0 00-3-16.69 74 74 0 00-2.9-8 62.82 62.82 0 00-3.74-7.53l1.47-.19c-2 7.56-3.67 15.25-5.18 22.94s-2.75 15.44-3.63 23.23a170 170 0 00-1.22 23.43c.32 7.82 1.14 15.76 4.44 22.95z" fill="#19180d"/></g></g></g></svg>