<svg xmlns="http://www.w3.org/2000/svg" xmlns:xlink="http://www.w3.org/1999/xlink" viewBox="0 0 545.01 684.37"><defs><linearGradient id="linear-gradient" x1="106.65" y1="366.07" x2="43.33" y2="70.58" gradientUnits="userSpaceOnUse"><stop offset="0" stop-color="#fffce9"/><stop offset=".08" stop-color="#fff9d2"/><stop offset=".33" stop-color="#ffef90"/><stop offset=".55" stop-color="#ffe85c"/><stop offset=".75" stop-color="#ffe236"/><stop offset=".9" stop-color="#ffdf1f"/><stop offset="1" stop-color="#ffde17"/></linearGradient><linearGradient id="linear-gradient-2" x1="220.6" y1="454.04" x2="147.03" y2="110.71" xlink:href="#linear-gradient"/><linearGradient id="linear-gradient-3" x1="391.3" y1="384.49" x2="316.74" y2="36.54" xlink:href="#linear-gradient"/><linearGradient id="linear-gradient-4" x1="516.65" y1="601.35" x2="458.09" y2="328.07" gradientTransform="matrix(.99 -.14 .12 .87 -48.12 139.31)" xlink:href="#linear-gradient"/><linearGradient id="linear-gradient-5" x1="539.56" y1="565.28" x2="491.02" y2="338.76" gradientTransform="rotate(6.16 519.87 442.46)" xlink:href="#linear-gradient"/><linearGradient id="linear-gradient-6" x1="458.22" y1="320.77" x2="416" y2="123.75" gradientTransform="rotate(6.86 436.226 207.353)" xlink:href="#linear-gradient"/><style>.cls-1{fill:#e7bf20;stroke:#19180d;stroke-miterlimit:10;stroke-width:4px}</style></defs><g id="Layer_2" data-name="Layer 2"><g id="HAIR"><g id="long_blonde_hair" data-name="long blonde hair"><path class="cls-1" d="M62.44 345.43S103 455.58 46.53 486.61c0 0 26.23 16.21 59.56-16.86 0 0-12.74 48.87-69.41 88.38 0 0-51.85 47.32-28.75 113.91 0 0-1.11-84.33 72.49-87.36 0 0 43.36-4 69.48-25.54 0 0-24.72 52.21-78.88 38.6 0 0 80.84 23.68 146.59-25.48 0 0-15-29.38-33.46-59.86 0 0-54.82-81.45-60.83-115.63 0 0-28.47-83.73-3.71-123.94 0 0-50.87-1.25-57.17 72.6z"/><path class="cls-1" d="M294.45 141.72s-126 106.05-120 258.17c0 0-27.86-101.47-.21-178.63 0 0-91.79 114.24-45.79 248.49 0 0-6.7-6.62-17-18-38-42-124.66-149-101-226 0 0 48-205.88 246-223.78 0 0 150 5.11 180 150.56 0 0 28 55.32-14 253.38 0 0-14 13.09-22 15.58 0 0 30-226.41 6-269 0 0-28 141.83-100 185.64 0 0 42-98.2 28-162.2 0 0-2 59.54-20 101.77 0 .07 20-104.27-20-135.98z"/><path d="M126.28 471c-3.53-6.39-6.64-12.86-9.63-19.42s-5.75-13.2-8.36-19.9a422 422 0 01-13.58-40.94 364.37 364.37 0 01-13.31-85c-.92-28.71 2.13-57.62 10-85.24a249.34 249.34 0 0137.07-77.12 248.94 248.94 0 00-35.87 77.45 277.79 277.79 0 00-8.68 84.81 361.32 361.32 0 0014.42 84.09 415.5 415.5 0 0014 40.34q4 9.88 8.56 19.55c3 6.42 6.23 12.82 9.71 18.91z" fill="#151717"/><path d="M89.26 93.49s-6.85 30.16 16.58 42.89c0 0-39.65 64.19-39.82 169.27 0 0-48-32.82-33-118.08-.02 0 13.62-47.19 56.24-94.08z" fill="url(#linear-gradient)"/><path d="M134.84 151.38S175 183.65 261 153.65c0 0-98.67 105.68-88.33 230.34 0 0-16.54-152.34 20.9-198.34 0 0-93.32 42.3-88.44 212.15.01 0-49.13-142.02 29.71-246.42z" fill="url(#linear-gradient-2)"/><path d="M304.11 141.36s71.55-31 73.73-79.34c0 0 33 146.45-56.42 256 0 0 39.7-108.84 7.47-176.7 5.26 69 2.1 70.11-10.47 125.81 0 .04 15.75-85.83-14.31-125.77z" fill="url(#linear-gradient-3)"/><path class="cls-1" d="M443.53 184s3.14 113.68 53.86 176c0 0 79.91 96.25 28.2 206.31 0 0 26-61.92-29.83-128.14 0 0 40.24 54.72 10.36 120 0 0-3-53.67-28.5-71.52 0 0-22.09 130.52-129.73 128.34 0 0 53.23-28.71 60.73-78.45 0 0-15.74 16.59-38.58 16.08-1.92 0 .1-.21-1.92-.51l7.62-48.72s53.89-54.26 48.88-99.77c0 0 38.34 3.6 13.79-59.29 0-.04-22.97-137.65 5.12-160.33z"/><path d="M453.63 385.42s9.69 25.37 37.68 63.59c0 0 31.43 34.5 20.39 91 0 0-6.5-31-37.68-80.27-.02-.04-32.59-42.29-20.39-74.32z" fill="url(#linear-gradient-4)"/><path d="M490.2 362.19s57.34 61.36 42.23 151.74c0 0 15-29.79-33.06-88.17 0 0-13.37-15.05-9.17-63.57z" fill="url(#linear-gradient-5)"/><path d="M432.51 142.77s20.55 69.15 5.2 135.15c0 0-27.36-97.82-5.2-135.15z" fill="url(#linear-gradient-6)"/></g></g></g></svg>