<svg xmlns="http://www.w3.org/2000/svg" xmlns:xlink="http://www.w3.org/1999/xlink" viewBox="0 0 67.15 135.98"><defs><linearGradient id="a" x1="4.16" y1="65.95" x2="21.05" y2="65.95" gradientTransform="rotate(-2.49 -225.5 49.651)" gradientUnits="userSpaceOnUse"><stop offset="0" stop-color="#e6e7e8"/><stop offset=".35" stop-color="#d0d2d3"/><stop offset=".71" stop-color="#c1c3c5"/><stop offset="1" stop-color="#bcbec0"/></linearGradient><linearGradient id="b" x1="-560.66" y1="170.74" x2="-548.9" y2="85.33" gradientTransform="matrix(-.99 .17 .17 .99 -538.16 46.67)" xlink:href="#a"/></defs><g data-name="Layer 2"><g data-name="LEFT EAR"><g data-name="left earing 2"><path d="M30.16 2.17S73.8 61.49 63.61 133.8c0 0-31.78 3.11-43.3-16.87 0 0-26.11-60.48-16-98.07.03 0-.1-12.5 25.85-16.69z" stroke-width="4" fill="#bfc1b9" stroke="#19180d" stroke-miterlimit="10"/><path d="M12.22 18.6s-20.49 4.9 3.21 73.93c0 0 15.05-52.69-3.21-73.93z" fill="url(#a)"/><path d="M26.52 13.17S70.93 83 55.27 133.8c0 0-32.52 7.71-40.93-85.54 0 0-2.42-25.4 12.18-35.09z" stroke-width="2" fill="#bfc1b9" stroke="#19180d" stroke-miterlimit="10"/><path d="M25.62 37.56s20 44 14.83 75.5c0 0-16.16-3.72-21.77-38.48 0 0-7.58-35.58 6.94-37.02z" fill="url(#b)"/></g></g></g></svg>