<svg xmlns="http://www.w3.org/2000/svg" viewBox="0 0 93.28 175.68"><defs><linearGradient id="linear-gradient" x1="-5.85" y1="95.32" x2="115.82" y2="116.31" gradientTransform="rotate(-7.83 -241.445 90.425)" gradientUnits="userSpaceOnUse"><stop offset="0" stop-color="#e6e7e8"/><stop offset=".24" stop-color="#e4e4e5"/><stop offset=".42" stop-color="#dddcdb"/><stop offset=".59" stop-color="#d2cdcb"/><stop offset=".74" stop-color="#c3b9b4"/><stop offset=".89" stop-color="#af9f96"/><stop offset="1" stop-color="#9b8579"/></linearGradient><style>.cls-3{fill:#eef2e7}.cls-4{fill:#19180d}</style></defs><g id="Layer_2" data-name="Layer 2"><g id="LEFT_EAR" data-name="LEFT EAR"><g id="left_earing_1" data-name="left earing 1"><path d="M5.55 102.9S-11.18 55.38 28 35.74c0 0 11.49-9.86 47-31.59 0 0 23.29-10.27 14.27 14.08 0 0-3.46 9.35-18.53 17.75 0 0 12.2-7.25 17.29 4.78 2 4.75-1.68 14.64-13.19 22.06 0 0 17.89 15.09-2.61 25.06 0 0 17.75 15.92-8 21.09 0 0 11.14 19.28-15.06 23.63 0 0 8.2 13.81.55 26.76 0 0-7.91 22.28-30.53 11.26 0 0-14.59-16.1-1.67-31.65z" stroke="#19180d" stroke-miterlimit="10" stroke-width="4" fill="#eef2e7"/><path d="M17.64 116.55S-5.09 63.6 31.69 41.33l45-31s25.08-5-10.7 20.19c0 0-45.1 22.49-40.74 73.27-.04.04 4.47 26.4-7.61 12.76z" fill="url(#linear-gradient)"/><path class="cls-3" d="M70.67 36s-41.6 24.7-38.52 60.87l12.6-9.27-5.17 18.4 10.28-4.35-7.15 19.76"/><path class="cls-4" d="M71.7 37.69a102.42 102.42 0 00-14.84 11.05 90.62 90.62 0 00-12.57 13.63 61.16 61.16 0 00-8.76 16.23A45.56 45.56 0 0033 96.8l-1.41-.64 12.75-9.09L45.93 86l-.54 1.83-5.47 18.34-.48-.42 10.35-4.19.38-.15-.15.38-7.31 19.7 7-19.82.24.22-10.21 4.51-.67.3.19-.72 4.88-18.51 1 .71-12.47 9.41-1.25 1-.16-1.59a47.65 47.65 0 012.05-19.08 64.14 64.14 0 018.63-17.18 93.9 93.9 0 0112.59-14.53 105.88 105.88 0 0115.11-12z"/><path class="cls-3" d="M73.91 64s-17.06 9.5-23.47 17.64"/><path class="cls-4" d="M74.89 65.7c-2.16 1-4.35 2.16-6.49 3.32s-4.26 2.38-6.34 3.66-4.13 2.62-6.06 4.08a38.37 38.37 0 00-5.53 4.83A39.9 39.9 0 0155.32 76c1.78-1.73 3.65-3.36 5.57-4.94s3.9-3.09 5.9-4.56 4-2.9 6.15-4.29z"/><path class="cls-3" d="M72.43 89.86s-3.06-3.93-18.33 10.85"/><path class="cls-4" d="M70.87 91.12a1.08 1.08 0 00.24.22h.08s-.08-.07-.19-.09a2.51 2.51 0 00-.89 0 9.51 9.51 0 00-2.31.6 29.57 29.57 0 00-4.76 2.41 85.51 85.51 0 00-9 6.46 85.81 85.81 0 017.79-8.07 32.85 32.85 0 014.63-3.5 12.93 12.93 0 012.88-1.32 6.84 6.84 0 011.87-.3 5.21 5.21 0 011.17.15 3 3 0 01.67.27 3.07 3.07 0 01.38.22 2.3 2.3 0 01.5.45z"/></g></g></g></svg>