<svg xmlns="http://www.w3.org/2000/svg" xmlns:xlink="http://www.w3.org/1999/xlink" viewBox="0 0 576.35 765.07"><defs><linearGradient id="a" x1="28.53" y1="568.68" x2="106.06" y2="568.68" gradientUnits="userSpaceOnUse"><stop offset="0" stop-color="#fbc0a3"/><stop offset=".31" stop-color="#f7917f"/><stop offset="1" stop-color="#ed1e26"/></linearGradient><linearGradient id="b" x1="22.39" y1="325.78" x2="96.39" y2="325.78" xlink:href="#a"/><linearGradient id="c" x1="340.96" y1="620.22" x2="457.33" y2="620.22" xlink:href="#a"/><linearGradient id="d" x1="165.05" y1="320.17" x2="372.21" y2="320.17" xlink:href="#a"/><linearGradient id="e" x1="365.06" y1="449.76" x2="435.69" y2="449.76" xlink:href="#a"/><linearGradient id="f" x1="413.75" y1="658.91" x2="551.38" y2="658.91" gradientUnits="userSpaceOnUse"><stop offset="0" stop-color="#fbc0a3"/><stop offset=".07" stop-color="#fab198"/><stop offset=".39" stop-color="#f47367"/><stop offset=".67" stop-color="#f04544"/><stop offset=".88" stop-color="#ee292e"/><stop offset="1" stop-color="#ed1e26"/></linearGradient></defs><g data-name="Layer 2"><path d="M27.73 46.85s-19 237.48-9 277.48c0 0 12.6 56.69 8 94.27a83.46 83.46 0 01-2.21 11.73c-9.78 36-6.22 48 0 52 0 0 14.22 30 8.22 56 0 0-14.88 105-28.44 169 0 0 54.44 73 122.44 47 0 0 10-168 20-188 0 0 14-34 0-54 0 0-22-62-40-86 0 0 22-190 42-220 0 0 114 174.12 146 197.06 0 0 42 66.94 48 86.94 0 0 10 24 10 64 0 0 2 76 48 110 0 0 36 53.69 36 95.6 0 0 109-27.6 135-53.6 0 0-73-202-147-244 0 0-34-90-34-118 0 0-32-148-46-162 0 0-49.6-160-50-177 0 0-196 59.32-264 13.15z" fill="#e32c26" stroke="#150f0b" stroke-miterlimit="10" stroke-width="8"/><path d="M87.76 434.56S139.18 548.45 108 674.1c0 0 7.23 42-28.52 24.39 0 0-25.29-11.45-32.43-37.74 0 0-9.44-26.55-5.67-71 .04-.01.33-105.57 46.38-155.19z" fill="url(#a)"/><path d="M101.73 258.33s6 106 0 134c0 0-40 54-48.89 90 0 0-7.11 20-17.11 0 0 0-12-4 0-48 0 0 4.8-15.13 2-72 0 0-12.76-96.14 2-202 0 0 46 42 62 98z" fill="url(#b)"/><path d="M31.5 489.24a54.06 54.06 0 006.4 9.65 18.18 18.18 0 003.82 3.52 5.21 5.21 0 001.68.75 1.67 1.67 0 001.13-.1c.83-.35 1.9-1.77 2.63-3.4a30.19 30.19 0 001.84-5.44 85.27 85.27 0 001.88-12v-.39l.09-.21q4.94-11.33 10.19-22.47c1.76-3.71 3.56-7.41 5.43-11.06s3.81-7.3 6-10.76c-1.92 3.62-3.53 7.39-5.1 11.17s-3.06 7.6-4.51 11.43q-4.35 11.49-8.31 23.12l.13-.61a90.76 90.76 0 01-1 12.76 34.9 34.9 0 01-1.62 6.54 16.64 16.64 0 01-1.61 3.33 9.91 9.91 0 01-3 3.14 7.82 7.82 0 01-4.86 1.15 11.17 11.17 0 01-4.17-1.28 24.67 24.67 0 01-5.75-4.4 51.93 51.93 0 01-4.42-5 66 66 0 01-3.83-5.44z" fill="#052a35"/><path d="M473.33 737.73s-7.91-147.13-27.59-146.86c0 0-6.71-21.8-37.69-24.27 0 0-18.13-14.3-18.56-62.39 0 0-21.77-18.08-30.06 17.92 0 0-15.91 95.35 33.07 122 0 0 44.92 78.29 46.24 96.66z" fill="url(#c)"/><path d="M351.45 495.22s21.33-8.31 15.35-56.66c0 0 14-88.2-3-108.78 0 0-59.32-70.8-76.82-184.67 0 0-72.76 12-122 74.07 0 0 83.63 127.71 140.72 184.46.07 0 50.3 70.59 45.75 91.58z" fill="url(#d)"/><path d="M393.86 524.21s-8.33-20.79-6.25-70.4c0 0-12-47.73-3.47-89.17 0 0 28.4 66.77 27.48 89.17 0 0 22.06 43.4 40.07 43.4 0 0-38.28 0-35.14 27 0 0 2.45 24.01-22.69 0z" fill="url(#e)"/><path d="M486.84 759.36s-19.92-154.23-10.61-200.9c0 0 32 28.22 45.13 83.92 0 0-39.24 96.52-34.52 116.98z" fill="url(#f)"/><path d="M421.53 461.21a43.07 43.07 0 003.22 6.49c1.2 2.09 2.54 4.1 3.91 6.07a121.73 121.73 0 009 11.22c3.23 3.55 6.62 6.95 10.13 10.21q2.64 2.44 5.38 4.78t5.52 4.61l.62.5.15.81a139.39 139.39 0 012 16.07 145.6 145.6 0 01.23 16.19 97.74 97.74 0 01-2.14 16.18 52 52 0 01-6 15.46l-.8 1.34-1.47-.27c-4.81-.92-9.45-2.09-14.09-3.44q-3.48-1-6.91-2.17c-2.28-.8-4.54-1.65-6.77-2.57a73.56 73.56 0 01-12.84-6.69 35.67 35.67 0 01-5.65-4.61 17.57 17.57 0 01-4-6 18 18 0 004.62 5.31 37.48 37.48 0 005.9 3.83 83.26 83.26 0 0013 5.4c2.24.74 4.5 1.41 6.78 2s4.56 1.22 6.86 1.77 4.61 1 6.92 1.48 4.65.92 6.93 1.27l-2.27 1.07a52.1 52.1 0 005.07-14.28 92.61 92.61 0 001.87-15.38 143.19 143.19 0 00-.07-15.64c-.33-5.2-.76-10.49-1.54-15.57l.76 1.3q-2.79-2.38-5.49-4.89t-5.25-5.17a129 129 0 01-9.7-11.06 99 99 0 01-8.23-12.19 53.7 53.7 0 01-5.65-13.43z" fill="#091518"/></g></svg>