<svg xmlns="http://www.w3.org/2000/svg" xmlns:xlink="http://www.w3.org/1999/xlink" viewBox="0 0 576.35 765.97"><defs><linearGradient id="a" x1="50.09" y1="571.09" x2="162.84" y2="571.09" gradientTransform="matrix(1 .04 -.04 .91 22.42 45.91)" gradientUnits="userSpaceOnUse"><stop offset="0" stop-color="#e6e7e8"/><stop offset=".13" stop-color="#d9dadb"/><stop offset=".37" stop-color="#b6b6b7"/><stop offset=".69" stop-color="#7d7d7f"/><stop offset="1" stop-color="#414042"/></linearGradient><linearGradient id="b" x1="48.4" y1="326.67" x2="159.2" y2="326.67" xlink:href="#a"/><linearGradient id="c" x1="383.97" y1="621.12" x2="500.33" y2="621.12" xlink:href="#a"/><linearGradient id="d" x1="239.06" y1="321.06" x2="446.22" y2="321.06" xlink:href="#a"/><linearGradient id="e" x1="382.06" y1="450.66" x2="452.7" y2="450.66" xlink:href="#a"/><linearGradient id="f" x1="460.04" y1="672.12" x2="556.48" y2="616.86" xlink:href="#a"/><linearGradient id="g" x1="54.03" y1="110.68" x2="271.61" y2="110.68" gradientUnits="userSpaceOnUse"><stop offset="0" stop-color="#e6e7e8"/><stop offset=".12" stop-color="#c8c8c9"/><stop offset=".33" stop-color="#989899"/><stop offset=".53" stop-color="#727273"/><stop offset=".71" stop-color="#575658"/><stop offset=".88" stop-color="#474648"/><stop offset="1" stop-color="#414042"/></linearGradient></defs><g data-name="Layer 2"><path d="M27.73 47.75s-19 237.48-9 277.48c0 0 12.6 56.69 8 94.27a83.46 83.46 0 01-2.21 11.73c-9.78 36-6.22 48 0 52 0 0 14.22 30 8.22 56 0 0-14.88 105-28.44 169 0 0 54.44 73 122.44 47 0 0 10-168 20-188 0 0 14-34 0-54 0 0-22-62-40-86 0 0 22-190 42-220 0 0 114 174.12 146 197.06 0 0 42 66.94 48 86.94 0 0 10 24 10 64 0 0 2 76 48 110 0 0 36 53.68 36 95.6 0 0 109-27.6 135-53.6 0 0-73-202-147-244 0 0-34-90-34-118 0 0-32-148-46-162 0 0-49.6-160-50-177 0 0-196 59.31-264 13.15z" stroke="#091518" stroke-miterlimit="10" fill="#edeeef" stroke-width="8"/><path d="M87.76 435.45S139.18 549.35 108 675c0 0 7.23 42-28.52 24.38 0 0-25.29-11.45-32.43-37.73 0 0-9.44-26.55-5.67-71 .04-.01.33-105.57 46.38-155.2z" fill="url(#a)" opacity=".5"/><path d="M101.73 259.23s6 106 0 134c0 0-40 54-48.89 90 0 0-7.11 20-17.11 0 0 0-12-4 0-48 0 0 4.8-15.13 2-72 0 0-12.76-96.15 2-202 0 0 46 42 62 98z" fill="url(#b)" opacity=".5"/><path d="M31.5 490.14a54.42 54.42 0 006.4 9.65 18.45 18.45 0 003.82 3.52 5.21 5.21 0 001.68.75 1.67 1.67 0 001.13-.11c.83-.34 1.9-1.76 2.63-3.39a30.45 30.45 0 001.84-5.44 85.27 85.27 0 001.88-12v-.39l.09-.21q4.94-11.34 10.19-22.47c1.76-3.71 3.56-7.41 5.43-11.07s3.81-7.29 6-10.75c-1.92 3.62-3.53 7.39-5.1 11.17S64.45 457 63 460.83q-4.35 11.49-8.31 23.11l.13-.6a90.76 90.76 0 01-1 12.76 35 35 0 01-1.62 6.53 16.71 16.71 0 01-1.58 3.37 10 10 0 01-3 3.14 7.82 7.82 0 01-4.86 1.15 11.36 11.36 0 01-4.21-1.29 25.23 25.23 0 01-5.75-4.4 54.41 54.41 0 01-4.42-5 66 66 0 01-3.83-5.44z" fill="#052a35"/><path d="M473.33 738.62s-7.91-147.13-27.59-146.86c0 0-6.71-21.8-37.69-24.27 0 0-18.13-14.29-18.56-62.38 0 0-21.77-18.09-30.06 17.92 0 0-15.91 95.35 33.07 122 0 0 44.92 78.3 46.24 96.67z" fill="url(#c)" opacity=".5"/><path d="M351.45 496.12s21.33-8.31 15.35-56.67c0 0 14-88.19-3-108.78 0 0-59.32-70.79-76.82-184.66 0 0-72.76 12-122 74.07 0 0 83.63 127.71 140.72 184.46.07 0 50.3 70.59 45.75 91.58z" fill="url(#d)" opacity=".5"/><path d="M393.86 525.11s-8.33-20.79-6.25-70.4c0 0-12-47.73-3.47-89.17 0 0 28.4 66.77 27.48 89.17 0 0 22.06 43.4 40.07 43.4 0 0-38.28 0-35.14 27 0 0 2.45 24-22.69 0z" fill="url(#e)" opacity=".5"/><path d="M486.84 760.25S466.92 606 476.23 559.35c0 0 32 28.22 45.13 83.93 0 0-39.24 96.52-34.52 116.97z" fill="url(#f)" opacity=".5"/><path d="M421.53 462.1a43.18 43.18 0 003.22 6.5c1.2 2.09 2.54 4.09 3.91 6.07a121.6 121.6 0 009 11.21c3.23 3.55 6.62 6.95 10.13 10.22q2.64 2.44 5.38 4.77t5.52 4.62l.62.49.15.82a139.49 139.49 0 012 16.06 145.67 145.67 0 01.23 16.19 98 98 0 01-2.14 16.19 52.2 52.2 0 01-6 15.46l-.8 1.34-1.47-.28c-4.81-.91-9.45-2.08-14.09-3.44q-3.48-1-6.91-2.17t-6.77-2.57a73.56 73.56 0 01-12.89-6.67 35.61 35.61 0 01-5.65-4.6 17.66 17.66 0 01-4-6 18 18 0 004.62 5.31 37.48 37.48 0 005.9 3.83 84.23 84.23 0 0013 5.4c2.24.74 4.5 1.4 6.78 2s4.56 1.22 6.86 1.76 4.61 1 6.92 1.49 4.65.92 6.93 1.27l-2.27 1.07a52.22 52.22 0 005.07-14.28 92.74 92.74 0 001.87-15.38 143.39 143.39 0 00-.07-15.65c-.33-5.2-.76-10.48-1.54-15.57l.76 1.31q-2.79-2.4-5.49-4.9t-5.25-5.16a127.62 127.62 0 01-9.7-11.07 98.89 98.89 0 01-8.23-12.18 53.61 53.61 0 01-5.6-13.46z" fill="#091518"/><path d="M24.76 122.64S81.4 196.68 142 222.88h17.13S205.37 151 326.45 131c0 0-14.51-79.6-31.72-124.79 0 0-163.39 46.67-264-.85z" fill="#080708" stroke-width="7" stroke="#091518" stroke-miterlimit="10"/><path d="M30 104.77s10.57 41.23 83.27 83.31c0 0 18 12.94 49.46 10 0 0 46.76-105.52 124.28-103.76 0 0-5.5-37.68-17.5-68.47 0 0-123.48 48.92-232.17-3z" fill="url(#g)" opacity=".5"/></g></svg>