<svg xmlns="http://www.w3.org/2000/svg" viewBox="0 0 248.68 238.94"><defs><linearGradient id="a" x1="39.15" y1="121.69" x2="207.99" y2="121.69" gradientUnits="userSpaceOnUse"><stop offset="0" stop-color="#9cdaed"/><stop offset=".14" stop-color="#97d7eb"/><stop offset=".31" stop-color="#87cfe6"/><stop offset=".49" stop-color="#6ec0dd"/><stop offset=".69" stop-color="#4aadd1"/><stop offset=".9" stop-color="#1d94c1"/><stop offset="1" stop-color="#0687b9"/></linearGradient></defs><g data-name="Layer 2"><g data-name="LOGO ON CHEST"><g data-name="logo on chest"><path fill="#f0f4f9" d="M198.53 234.92l-75.28-39.16-74.94 39.82 13.98-83.7L1.27 92.92l83.92-12.57 37.23-76.26 37.88 75.93 84.03 11.84-60.51 59.49 14.71 83.57z"/><path d="M198.79 235.28l-76-38.63h.93l-74.56 40.52-3.26 1.77.64-3.66 14.57-83.6.35 1.06L.86 93.35 0 92.51l1.18-.19L85 79.16l-.9.66L120.8 3.3l1.58-3.3L124 3.29l38 75.88-1.43-1 84 11.74 4.07.57-3 2.83-61.14 58.86.31-1zm-.53-.73l-15.52-83-.11-.55.42-.42 59.87-60.14 1.13 3.41L160 81.9l-1-.14-.44-.89-37.8-76h3.23l-37.76 76-.28.57-.62.09-84 12 .33-1L63.13 151l.45.43-.1.63-13.39 83.81-2.62-1.87 75.31-39.11.48-.25.45.25z" fill="#091518"/><path opacity=".15" fill="url(#a)" d="M170.98 203.23l-50.86-29.94-53.49 24.93 12.76-57.62-40.24-43.17 58.74-5.67 28.62-51.61 23.55 54.11 57.93 11.27-44.19 39.12 7.18 58.58z"/></g></g></g></svg>