<svg xmlns="http://www.w3.org/2000/svg" viewBox="0 0 264.03 261.54"><defs><linearGradient id="a" x1="-16.28" y1="130.42" x2="242.88" y2="130.42" gradientUnits="userSpaceOnUse"><stop offset="0" stop-color="#fbc0a3"/><stop offset=".15" stop-color="#f89a86"/><stop offset=".34" stop-color="#f46e64"/><stop offset=".53" stop-color="#f14b49"/><stop offset=".71" stop-color="#ef3236"/><stop offset=".87" stop-color="#ed232a"/><stop offset="1" stop-color="#ed1e26"/></linearGradient></defs><g data-name="Layer 2"><g data-name="LOGO ON CHEST"><g data-name="logo on chest 1" stroke-miterlimit="10" stroke-width="4"><path d="M42.35 7.28s74.36-16 173.29 7.77c0 0 7.16 15.76 45.53 64.36 0 0-53 38.39-79.43 83.19 0 0-13 24.1-37.42 56.68l-32.7 39.56s-12.92-9.09-33.28-33.9c0 0-31.78-31.36-47-81.85 0 0-31.89-37.32-29.21-81.28.03 0 17.15-18.92 40.22-54.53z" stroke="#150f0b" fill="url(#a)"/><path d="M54.2 26.79s96.73-7.47 140 6.64A327.86 327.86 0 00227 75.71s-32.85 23.52-67.23 71.83c0 0-9.06 16.23-28 43.53l-22.85 32.77-23.4-26.23s-19-20-33.71-62.35c0 0-28.83-33.77-26.68-69.09A182.83 182.83 0 0054.2 26.79z" fill="#e9e623" stroke="#19180d"/></g></g></g></svg>