<svg xmlns="http://www.w3.org/2000/svg" xmlns:xlink="http://www.w3.org/1999/xlink" viewBox="0 0 339.27 437.54"><defs><linearGradient id="a" x1="-12.91" y1="76.19" x2="200.72" y2="127.95" gradientUnits="userSpaceOnUse"><stop offset="0" stop-color="#e6e7e8"/><stop offset=".13" stop-color="#d9dadb"/><stop offset=".37" stop-color="#b6b6b7"/><stop offset=".69" stop-color="#7d7d7f"/><stop offset="1" stop-color="#414042"/></linearGradient><linearGradient id="b" x1="22.61" y1="306.23" x2="65.86" y2="306.23" xlink:href="#a"/><linearGradient id="c" x1="92.14" y1="293.87" x2="186.32" y2="315.79" xlink:href="#a"/><linearGradient id="d" x1="186.22" y1="323.73" x2="304.28" y2="298.75" xlink:href="#a"/></defs><g data-name="Layer 2"><path d="M306.52 46.93S279.29 2.69 182.89 2.7c0 0-108.12-7.13-155.41 64.31 0 0-32.89 57.58-23.19 127.07 0 0 17.63 37 17.57 61.51-2.05 3.17-11.86 51.87 7.58 72.41 0 0 59.13 46.27 88.94 22.88 0 0 11.92-31.27 18.81-48.84 0 0 20.62-15 33.81 9.45 0 0 12.64 32.42 46.91 28.83 0 0 24.43 6.91 79.29-54.86 0 0 20.35 76.89-19.41 138.73 0 0 60.09-52.26 49.6-130.73 0-.03 31.47-180.07-20.87-246.53zM127.29 288.19c-3.42 32.31-31.54 30.95-31.54 30.95-49.46 3.64-67.11-47.92-67.11-47.92l-5.08-29.67c-4.59-39.65 7.31-51.32 7.31-51.32 24.25-38.44 70.23 14.94 70.23 14.94 32.26 43.05 26.19 83.02 26.19 83.02zm89.22 23.37s-45.24 5.4-51.22-63.13c0 0-23.24-83.07 92.7-106.85 0 0 43.59 2.26 44.68 53 0 .02 3.26 85.28-86.16 116.98z" fill="#281d28" stroke="#091518" stroke-miterlimit="10" stroke-width="5"/><path d="M148.47 207.46s-12.92 14-36.6-8c0 0-31.79-31.37-71.53-33.15 0 0-21.93 5.5-22.54 30.32 0 0-7.36-4.85-6.93-25 0 0-5.81-96.24 61.76-141.18 0 0 93.46-47.06 158.51 0 0 0 35.74 9 45.39 79 0 0-106.95 20.39-121.15 85.21z" fill="url(#a)" opacity=".5"/><path d="M24 277.44s12.29 32.06 41.82 40.85c0 0 2.31 19.89-17 16.29-.06 0-33.21-6.28-24.82-57.14z" fill="url(#b)" opacity=".5"/><path d="M172.64 283.38s7.18 16.73-9.58 10.71c0 0-22.72-10.89-35.7 22.93 0 0-4.81 30.35-17.73 34.89 0 0 8.75-16.9-5.86-30.77 0 0 37-5.7 23.5-69.63 0 0 7.53 20.41 34 4.49.03 0-.52 9.94 11.37 27.38z" fill="url(#c)" opacity=".5"/><path d="M270.09 283.43s15.78 9.68 4.12 22.8c0 0-33.91 36.72-44.91 28.78 0 0-14.77-12 0-24.23z" fill="url(#d)" opacity=".5"/></g></svg>