<svg xmlns="http://www.w3.org/2000/svg" xmlns:xlink="http://www.w3.org/1999/xlink" viewBox="0 0 340.71 437.54"><defs><linearGradient id="linear-gradient" x1="-11.47" y1="76.19" x2="202.15" y2="127.95" gradientUnits="userSpaceOnUse"><stop offset="0" stop-color="#9cdaed"/><stop offset=".16" stop-color="#8ad0e7"/><stop offset=".48" stop-color="#5cb6d7"/><stop offset=".93" stop-color="#128ebd"/><stop offset="1" stop-color="#0687b9"/></linearGradient><linearGradient id="linear-gradient-2" x1="24.04" y1="306.23" x2="67.3" y2="306.23" xlink:href="#linear-gradient"/><linearGradient id="linear-gradient-3" x1="93.57" y1="293.87" x2="187.76" y2="315.79" gradientUnits="userSpaceOnUse"><stop offset="0" stop-color="#9cdaed"/><stop offset=".22" stop-color="#6ec1dd"/><stop offset=".47" stop-color="#41a8ce"/><stop offset=".69" stop-color="#2196c2"/><stop offset=".87" stop-color="#0d8bbb"/><stop offset="1" stop-color="#0687b9"/></linearGradient><linearGradient id="linear-gradient-4" x1="187.65" y1="323.73" x2="305.72" y2="298.75" xlink:href="#linear-gradient-3"/><linearGradient id="linear-gradient-5" x1="5.01" y1="240.19" x2="247.1" y2="240.19" gradientUnits="userSpaceOnUse"><stop offset="0" stop-color="#fffce9"/><stop offset=".08" stop-color="#fff9d2"/><stop offset=".33" stop-color="#ffef90"/><stop offset=".55" stop-color="#ffe85c"/><stop offset=".75" stop-color="#ffe236"/><stop offset=".9" stop-color="#ffdf1f"/><stop offset="1" stop-color="#ffde17"/></linearGradient><linearGradient id="linear-gradient-6" x1="153.27" y1="234.29" x2="209.03" y2="234.29" xlink:href="#linear-gradient-5"/><linearGradient id="linear-gradient-7" x1="172.64" y1="238.61" x2="257.59" y2="238.61" gradientUnits="userSpaceOnUse"><stop offset="0" stop-color="#fbc0a3"/><stop offset=".31" stop-color="#f7917f"/><stop offset="1" stop-color="#ed1e26"/></linearGradient><linearGradient id="linear-gradient-8" x1="4.6" y1="251.86" x2="57.79" y2="251.86" xlink:href="#linear-gradient-5"/><linearGradient id="linear-gradient-9" x1="19.64" y1="257.88" x2="101.24" y2="257.88" xlink:href="#linear-gradient-7"/><style>.cls-11,.cls-12,.cls-7{stroke-miterlimit:10}.cls-11,.cls-7{fill:#e7bf20;stroke:#19180d}.cls-7{stroke-width:3px}.cls-9{fill:#e5db8f}.cls-11{stroke-width:2px}.cls-12{fill:#e32c26;stroke:#150f0b}</style></defs><g id="Layer_2" data-name="Layer 2"><g id="MASK"><g id="blue_mask_with_google" data-name="blue mask with google"><path d="M308 46.93S280.73 2.69 184.32 2.7c0 0-108.11-7.13-155.41 64.31 0 0-32.88 57.58-23.19 127.07 0 0 17.64 37 17.57 61.51-2.05 3.17-11.84 51.87 7.58 72.38 0 0 59.14 46.27 88.95 22.88 0 0 11.92-31.27 18.81-48.84 0 0 20.61-15 33.8 9.45 0 0 12.64 32.42 46.92 28.83 0 0 37 6.68 79.28-37.86 0 0 20.36 59.89-19.4 121.73 0 0 60.09-52.26 49.59-130.73 0 0 31.47-180.04-20.82-246.5zM128.72 288.19c-3.42 32.31-31.53 30.95-31.53 30.95-49.46 3.64-67.12-47.92-67.12-47.92L25 241.55c-4.59-39.65 7.3-51.32 7.3-51.32 24.26-38.44 70.23 14.94 70.23 14.94 32.26 43.05 26.19 83.02 26.19 83.02zM218 311.56s-45.25 5.4-51.23-63.13c0 0-23.24-83.07 92.71-106.85 0 0 43.58 2.26 44.68 53-.05.02 3.2 85.28-86.16 116.98z" stroke-miterlimit="10" stroke="#091518" stroke-width="5" fill="#098ec0"/><path d="M149.9 207.46s-12.91 14-36.6-8c0 0-31.79-31.37-71.52-33.15 0 0-21.94 5.5-22.55 30.32 0 0-7.36-4.85-6.93-25 0 0-5.8-96.24 61.76-141.18 0 0 93.46-47.06 158.51 0 0 0 35.75 9 45.4 79 0 0-107 20.39-121.15 85.21z" fill="url(#linear-gradient)"/><path d="M25.39 277.44s12.29 32.06 41.82 40.85c0 0 2.31 19.89-17 16.29-.01 0-33.21-6.28-24.82-57.14z" fill="url(#linear-gradient-2)"/><path d="M174.07 283.38s7.19 16.73-9.57 10.71c0 0-22.73-10.89-35.71 22.93 0 0-4.8 30.35-17.73 34.89 0 0 8.76-16.9-5.85-30.77 0 0 37-5.7 23.49-69.63 0 0 7.54 20.41 34 4.49.04 0-.52 9.94 11.37 27.38z" fill="url(#linear-gradient-3)"/><path d="M271.52 283.43s15.79 9.68 4.12 22.8c0 0-33.9 36.72-44.91 28.78 0 0-14.77-12 0-24.23z" fill="url(#linear-gradient-4)"/><path d="M209.07 147.08s73.64-19.62 85.59-3.62c0 0 22 45 17 68-.04.01-84.66-63.46-102.59-64.38z" fill="#098ec0"/><path class="cls-7" d="M9.8 280.72s38.35 66.6 99.61 40.63c0 0 14.64-5.69 23.69-22.85 0 0 12-23.31 36.27-4 0 0 24.92 34.3 81.07 17 0 0 43.65-13 71.15-71.33 0 0 8-29.7-11.49-53.64 0 0-56.6-77.83-142.16-9.3 0 0-18 23-36.35 19 0 0-10 2.66-30.48-11.52 0 0-60.8-29-97.94 13.19 0-.02-6.66 66.76 6.63 82.82z"/><path d="M116.58 195.25s21.36 19.1 49.76-7.41c0 0 28.29-42.46 80.76-31.56 0 0-106.36 42.31-36.19 155.39 0 0-24.08-1.12-39.71-16.56 0 0-21.24-25.1-35.18-2.57 0 0-17.64 48.68-82.29 28.41 0 0-56-22.6-47.59-64.18L5 198.48s44.07-45.65 111.57-3.23" fill="url(#linear-gradient-5)"/><ellipse class="cls-7" cx="224.82" cy="236.46" rx="72.53" ry="69.86" transform="rotate(-4.24 224.57 236.218)"/><path class="cls-9" d="M191.13 175.59s-76.87 45.83-10.06 113.22c0 0 46.08 37.47 92.75-6.52 0 0-62.4 6-77.51-36.63 0 0-11-54.35 45.35-61 0 0-1-8.66 10.41-13 0 .06-34.81-12.09-60.94 3.93z"/><ellipse class="cls-7" cx="72.37" cy="256.17" rx="68.07" ry="65.57"/><path d="M176.61 186.46s-55.38 52.54 4.46 102.35l7.8.76s-42.25-26.45-23.25-68.28c0 0 8.66-31.55 43.41-37.56-.03 0-12.44-12.27-32.42 2.73z" fill="url(#linear-gradient-6)"/><path class="cls-11" d="M283.31 236.24c2.39 32.25-22.82 60.4-56.3 62.88s-62.56-21.65-64.94-53.9 22.81-60.4 56.29-62.88 62.56 21.66 64.95 53.9z"/><path class="cls-12" d="M276 240.19c0 28.3-23.83 51.25-53.21 51.25s-53.22-22.95-53.22-51.25 23.83-51.25 53.22-51.25S276 211.88 276 240.19z"/><path d="M203.09 197.44s-34.61 13.16-30 51.6c0 0 5.33 25.85 33.16 33.52 0 0-37.06-33.52-3.13-54.51 0 0 22.32-8.17 31.84 6.18 0 0 18.67-2.18 22.66-22-.03-.05-16.51-25.93-54.53-14.79z" fill="url(#linear-gradient-7)"/><path class="cls-9" d="M44.91 198.73s-77.35 34.42-16.47 106.08c0 0 40.8 31.33 86.48-.48 0 0-58.82 1.26-70-39.66 0 0-6.55-51.63 46.67-53.91 0 0-.32-8.17 10.64-11.43-.01 0-31.74-13.78-57.32-.6z"/><path d="M31.56 205.07s-60.16 47.5-.74 99.73l7.53.73S-2.4 280 15.93 239.67c0 0 8.35-30.43 41.86-36.22 0 0-6.96-12.84-26.23 1.62z" fill="url(#linear-gradient-8)"/><ellipse class="cls-11" cx="66.45" cy="259.47" rx="57.05" ry="54.95"/><ellipse class="cls-12" cx="66.18" cy="259.57" rx="49.88" ry="48.04"/><path d="M48.89 218.33S15.65 231 20 267.89c0 0 5.12 24.84 31.85 32.2 0 0-35.59-32.2-3-52.36 0 0 21.44-7.84 30.58 5.94 0 0 17.93-2.1 21.77-21.18.04 0-15.79-24.86-52.31-14.16z" fill="url(#linear-gradient-9)"/></g></g></g></svg>