<svg xmlns="http://www.w3.org/2000/svg" xmlns:xlink="http://www.w3.org/1999/xlink" viewBox="0 0 453.74 201.97"><defs><linearGradient id="linear-gradient" x1="189.22" y1="151.7" x2="232.2" y2="210.41" gradientUnits="userSpaceOnUse"><stop offset="0" stop-color="#fef6b9"/><stop offset=".25" stop-color="#fcdda1"/><stop offset=".78" stop-color="#f79f65"/><stop offset="1" stop-color="#f5834a"/></linearGradient><linearGradient id="linear-gradient-2" x1="9.59" y1="155.61" x2="77.87" y2="151.32" gradientUnits="userSpaceOnUse"><stop offset="0" stop-color="#fbc0a3"/><stop offset=".18" stop-color="#f9a790"/><stop offset=".58" stop-color="#f3685f"/><stop offset="1" stop-color="#ed1e26"/></linearGradient><linearGradient id="linear-gradient-3" x1="44.56" y1="134.33" x2="101.57" y2="130.75" xlink:href="#linear-gradient-2"/><linearGradient id="linear-gradient-4" x1="89.22" y1="108.57" x2="129.05" y2="108.57" xlink:href="#linear-gradient-2"/><linearGradient id="linear-gradient-5" x1="323.31" y1="114.76" x2="399.57" y2="114.76" xlink:href="#linear-gradient-2"/><linearGradient id="linear-gradient-6" x1="341.66" y1="136.3" x2="416.01" y2="136.3" xlink:href="#linear-gradient-2"/><style>.cls-1{fill:#ab3333;stroke:#150f0b;stroke-miterlimit:10;stroke-width:6px}.cls-4{fill:#321b0f}.cls-5{fill:#ee323f}.cls-7{fill:#150f0b}</style></defs><g id="Layer_2" data-name="Layer 2"><g id="NECK_AREA" data-name="NECK AREA"><g id="neck_and_red_cape" data-name="neck and red cape"><path class="cls-1" d="M257.7 54.35s42.77 17.45 81.19 7.17c0 0-86.82 75.43-90 108.84 0 0 .81-77.36 8.81-116.01z"/><path d="M288.85 7.26s-20.6 127.06-21.8 159.67c0 0-33.61 15.69-63.57 21.44-20 3.82-31.19 1.82-55.64-1.6 0 0 3.13-98.21-9-151.53-4.21-18.49-3-18.73-3-18.73S240.85 46 288.85 7.26z" fill="#f0ab84" stroke="#321b0f" stroke-miterlimit="10" stroke-width="6"/><path d="M161.09 187.12s38.73 10.44 83.94-17c0 0 6.8-33.26-17.08-12.26l-12.8 17.21a29.2 29.2 0 00-15.15-21.6s-30.1-5.33-34.77 2.52c.03.01-12.13 9.4-4.14 31.13z" opacity=".6" fill="url(#linear-gradient)"/><path class="cls-4" d="M202.21 186.82a58.58 58.58 0 006.16-5.89c1.95-2.13 3.79-4.38 5.53-6.7a96.66 96.66 0 009.1-14.9 107.74 107.74 0 0010.08-33.62 108.77 108.77 0 01-8.26 34.45 98.71 98.71 0 01-8.47 15.84 89.2 89.2 0 01-5.34 7.27 60.33 60.33 0 01-6.27 6.69z"/><path class="cls-1" d="M148.4 189.19s-9.82-49.45 2-94.28l8-27.72s-46-14-68 0c0 0-12 16.62-12 37.31l-30 7.58v18s-31.76-3.23-45 38.45c0 0-5.73 24 26 16.86 0 0 22 7.25 44 0 0 0 8.61 9.86 16.81 6.8 0 0 .19-.55 22.19-13.8 0 .05 4.2 19.17 36 10.8z"/><path class="cls-5" d="M144.57 73.64s-17.73 96 3.83 116.55c0 0-57.06-59.77-52.19-116.55s.31-5.94.31-5.94 12.66-7.16 48.05 5.94zM112.4 180.44s-27.56-31.18-34-73.94l-30 7.58s8.05 53.67 43.81 67.16c0 0-1.78 5.27 20.19-.8z"/><path class="cls-5" d="M73.4 185.44s-25-37.27-25-55.31a54.77 54.77 0 00-31.76 20.76s8.19 34.55 32.48 34.55z"/><path d="M78.4 104.5s18.17 57.45 70 84.69" fill="#ab3333"/><path class="cls-7" d="M81.26 103.59a129 129 0 004.79 12.83q2.73 6.35 6 12.49a170.1 170.1 0 0014.87 23.44 146.25 146.25 0 0018.81 20.53 127.09 127.09 0 0022.7 16.31 127.3 127.3 0 01-23.7-15.19 148.56 148.56 0 01-20.18-19.79 174 174 0 01-16.45-23.09q-3.64-6.11-6.82-12.5a136.1 136.1 0 01-5.73-13.2zM99.88 184.36a11 11 0 01-1.16-.09l-1-.16c-.65-.12-1.27-.27-1.89-.44a31.73 31.73 0 01-3.56-1.22 39.63 39.63 0 01-6.45-3.45 56.72 56.72 0 01-10.75-9.21 98.7 98.7 0 01-15.26-23 97.05 97.05 0 0017.36 20.83 53 53 0 0010.9 7.46 34.91 34.91 0 006 2.36 25.65 25.65 0 003 .68c.5.08 1 .14 1.48.17h.7a2.74 2.74 0 00.55 0z"/><path d="M69.08 175.05s-92.24-17.84-23-44.92" fill="url(#linear-gradient-2)"/><path d="M75.61 109.13s11.67 36.06 18.91 45.93c0 0-32.4-6.1-42-40.71.02 0 7.74-6.84 23.09-5.22z" fill="url(#linear-gradient-3)"/><path class="cls-7" d="M83.81 122.76a55.58 55.58 0 001.37 7.62c.62 2.55 1.37 5.08 2.22 7.58a103.68 103.68 0 006.31 14.58 116.83 116.83 0 0018.69 25.9A117.76 117.76 0 0192 153.52 105.58 105.58 0 0184.6 139c-1-2.52-2-5.09-2.79-7.71a59.91 59.91 0 01-2-8.1z"/><path d="M89.23 72.59s-1.11 44.88 39.82 93.52c0 0-32.82-85.89-12.45-105.13s1.05-4.63 1.05-4.63-20.45 2.37-28.42 16.24z" fill="url(#linear-gradient-4)"/><path class="cls-4" d="M221.31 186.12a57.69 57.69 0 016.89-4.43c2.37-1.35 4.82-2.58 7.3-3.73 4.94-2.36 10.05-4.31 15.19-6.18s10.39-3.41 15.66-4.84 10.6-2.67 15.94-3.78c10.69-2.21 21.49-3.82 32.32-5q8.11-.87 16.27-1.35c5.43-.35 10.87-.49 16.3-.64L345 157.9a18.46 18.46 0 011-2.17c.34-.67.71-1.33 1.1-2a35 35 0 012.55-3.69 33.77 33.77 0 013-3.32 29.13 29.13 0 013.48-2.79 23.79 23.79 0 018-3.6 24.25 24.25 0 018.55-.53 28.4 28.4 0 00-8 2.07 24.91 24.91 0 00-6.73 4.37 29.5 29.5 0 00-5 6.11 30.71 30.71 0 00-1.88 3.48c-.27.59-.53 1.2-.76 1.8s-.46 1.26-.6 1.74l-.42 1.51-1.75.18c-5.37.54-10.72 1.22-16.06 1.84s-10.69 1.3-16 2c-10.66 1.41-21.28 3-31.85 4.85q-7.94 1.4-15.81 3c-5.25 1.08-10.5 2.22-15.69 3.55s-10.39 2.71-15.54 4.25a135.65 135.65 0 00-15.28 5.57z"/><path class="cls-1" d="M264.66 195.85s-12.52-7.51-8-42.84c0 0 27.66-99.42 73.44-108 0 0 12.21 35 82.66 22 0 0 32.19 10.95 13 33.64 0 0 4.13 9.46 22.17 16.38 0 0 10.66 29.35-9.64 42.57 0 0-63.42-55.13-104.86 39.22l-9.51-.59c-1.14-4.48-2-9.89 2.1-23.21.74-2.38-10.54 24-13.55 23.91-7.07-.24-12-.24-18.56-.36-3 0-.95-22.28-3-20.2-6.94 7-4.14 19.81-6.87 19.69-6.16-.28-10.91.34-12.61-.18z"/><path class="cls-5" d="M267.24 177.05S252 107 317 56.35c0 0-.89 26.48 42 18.35l55.75-3.7s26.58 13.42 8.87 30.16c0 0-85.6 18.72-106.63 93.63 0 0-12.38-2.19-24.2-5.64 0 0 4.84-32.15 21.18-61.48.03.04-35.46 2.7-46.73 49.38z"/><path class="cls-5" d="M427.3 148.63s23.64-16.5 11.64-34.28c0 0-53.58-13.88-97.28 51.76 0 0 41.98-54.59 85.64-17.48z"/><path class="cls-7" d="M410.53 69.94c-8.86 2.06-17.7 3.74-26.63 5.14A258.51 258.51 0 01357 78a131.07 131.07 0 01-13.59 0 58.4 58.4 0 01-13.48-2.15 23.71 23.71 0 01-6.3-2.85 11.78 11.78 0 01-4.43-5.29 12.28 12.28 0 01-.5-6.78 25.34 25.34 0 012.19-6.38 25.19 25.19 0 00-1.82 6.45 11.79 11.79 0 00.82 6.43 10.71 10.71 0 004.35 4.57 22.08 22.08 0 006.06 2.39 56 56 0 0013.14 1.35 131.38 131.38 0 0013.29-.74 258.41 258.41 0 0026.35-4.35c8.71-1.87 17.41-4 25.9-6.51zM262.68 196.13a60.44 60.44 0 01-.25-8.68 83.63 83.63 0 01.74-8.53 87.13 87.13 0 014-16.58 86.06 86.06 0 0117.17-29.1 102.44 102.44 0 0126.36-20.87 148 148 0 0131-12.8 147.22 147.22 0 00-30.46 13.66 101.14 101.14 0 00-25.35 21.32 83.3 83.3 0 00-19.2 44.8 77.16 77.16 0 00-.47 8.17 57.4 57.4 0 00.46 8zM423.6 105.67a33.4 33.4 0 00-4.26 0c-1.46.07-2.93.2-4.39.39a70.62 70.62 0 00-8.72 1.69A88.83 88.83 0 00389.5 114a123.51 123.51 0 00-29.5 20.61 185.2 185.2 0 00-23.87 27.28A268 268 0 00317 192.83a270.08 270.08 0 0118.36-31.51 187.88 187.88 0 0123.31-28.16 126.73 126.73 0 0129.48-21.86 92.59 92.59 0 0117.17-7 73.4 73.4 0 019.12-2c1.54-.23 3.1-.42 4.67-.54a35.38 35.38 0 014.85-.07z"/><path class="cls-7" d="M292 164.11a138.37 138.37 0 017.87-17.54A180 180 0 01309.8 130a169.05 169.05 0 0111.72-15.38 156.81 156.81 0 0113.54-13.87A131.89 131.89 0 01350.45 89a108.51 108.51 0 0117.17-9.11 91 91 0 0137.72-7.25 111.16 111.16 0 00-36.45 10.1 122.05 122.05 0 00-16.34 9.41 135.39 135.39 0 00-14.83 11.67 163.89 163.89 0 00-13.37 13.38c-4.25 4.68-8.19 9.64-12 14.69s-7.39 10.32-10.77 15.71-6.65 10.83-9.58 16.51z"/><path d="M325.69 152.59s46.46-54.74 66.31-51.35c0 0 23.46-24.28-12.2-24.31 0 0-70.12 29.23-54.11 75.66z" fill="url(#linear-gradient-5)"/><path d="M341.66 166.11s19.5-58.85 64.9-59.61c0 0 18.94 11.58 3.19 20.4 0 0-50.35 7.1-68.09 39.21z" fill="url(#linear-gradient-6)"/></g></g></g></svg>