<svg xmlns="http://www.w3.org/2000/svg" viewBox="0 0 160.39 196.19"><defs><linearGradient id="a" x1="55.37" y1="150.14" x2="100.1" y2="211.25" gradientUnits="userSpaceOnUse"><stop offset="0" stop-color="#9cdaed"/><stop offset=".12" stop-color="#94d5ea"/><stop offset=".32" stop-color="#7dc9e2"/><stop offset=".57" stop-color="#58b4d5"/><stop offset=".85" stop-color="#2498c4"/><stop offset="1" stop-color="#0687b9"/></linearGradient></defs><g data-name="Layer 2"><g data-name="NECK AREA"><g data-name="blue neck no cape"><path d="M156.18 7.26s-20.61 127.06-21.81 159.67c0 0-33.61 15.69-63.57 21.44-20 3.82-23.58 11.57-55.64-7.6 0 0 3.13-92.21-9-145.53-4.21-18.49-3-18.73-3-18.73S108.17 46 156.18 7.26z" fill="#098ec0" stroke="#091518" stroke-miterlimit="10" stroke-width="6"/><path d="M25.41 183.12s15.54 24.23 87-13c0 0 6.79-33.26-17.08-12.26l-12.86 17.19s-1.16-16-15.11-23.58c0 0-30.11-6.33-34.78 1.52 0 .01-15.15 8.4-7.17 30.13z" fill="url(#a)"/><path d="M69.53 186.82a58.58 58.58 0 006.16-5.89c2-2.13 3.79-4.38 5.53-6.7a96.66 96.66 0 009.1-14.9 107.47 107.47 0 0010.08-33.62 108.77 108.77 0 01-8.26 34.45A98.71 98.71 0 0183.67 176a86.9 86.9 0 01-5.34 7.27 60.33 60.33 0 01-6.27 6.69z" fill="#321b0f"/></g></g></g></svg>