<svg xmlns="http://www.w3.org/2000/svg" viewBox="0 0 159.19 194.48"><defs><linearGradient id="a" x1="41.03" y1="130.03" x2="85.76" y2="191.14" gradientUnits="userSpaceOnUse"><stop offset="0" stop-color="#fbc0a3"/><stop offset=".31" stop-color="#f7917f"/><stop offset="1" stop-color="#ed1e26"/></linearGradient></defs><g data-name="Layer 2"><g data-name="NECK AREA"><g data-name="red neck no cape"><path d="M155.68 6.05s-20.61 127.06-21.81 159.67c0 0-33.61 15.69-63.57 21.44-20 3.82-23.58 11.57-55.64-7.6 0 0 3.13-92.21-9-145.53-4.21-18.49-3-18.73-3-18.73s105.01 29.5 153.02-9.25z" fill="#e32c26" stroke="#150f0b" stroke-miterlimit="10" stroke-width="5"/><path d="M24.91 181.91s15.54 24.23 87-13c0 0 6.79-33.26-17.08-12.26L82 173.84s-1.16-16-15.11-23.58c0 0-30.11-6.33-34.78 1.52-.03 0-15.18 8.4-7.2 30.13z" fill="url(#a)"/><path d="M69 185.61a58.58 58.58 0 006.16-5.89c2-2.13 3.79-4.38 5.53-6.7a96.66 96.66 0 009.1-14.9A107.47 107.47 0 0099.9 124.5a108.77 108.77 0 01-8.26 34.5 98.71 98.71 0 01-8.47 15.79 86.9 86.9 0 01-5.34 7.21 60.33 60.33 0 01-6.27 6.69z" fill="#321b0f"/></g></g></g></svg>